<svg xmlns="http://www.w3.org/2000/svg" width="44" height="44" fill="none"><path fill="#0B7572" fill-rule="evenodd" d="M9.54 9.54A17.576 17.576 0 0 1 22 4.373c4.864 0 9.273 1.977 12.46 5.165A17.576 17.576 0 0 1 39.627 22c0 4.864-1.977 9.273-5.165 12.46A17.576 17.576 0 0 1 22 39.627 17.576 17.576 0 0 1 9.54 34.46 17.576 17.576 0 0 1 4.373 22c0-4.864 1.977-9.273 5.165-12.46ZM44 22a21.933 21.933 0 0 0-6.445-15.555A21.933 21.933 0 0 0 22 0 21.933 21.933 0 0 0 6.445 6.445 21.933 21.933 0 0 0 0 22a21.933 21.933 0 0 0 6.445 15.555A21.933 21.933 0 0 0 22 44a21.933 21.933 0 0 0 15.555-6.445A21.933 21.933 0 0 0 44 22Z" clip-rule="evenodd"/><path fill="#0B7572" fill-rule="evenodd" d="M16.913 16.99c0-1.564.55-2.827 1.658-3.79.74-.653 1.84-1.048 3.291-1.194v-1.049h1.298v1.048c1.272.12 2.286.499 3.034 1.118.962.79 1.538 1.89 1.727 3.283l-2.269.343c-.129-.86-.395-1.52-.808-1.976-.403-.456-.97-.765-1.684-.911v6.325c1.1.275 1.84.498 2.192.653.678.3 1.237.662 1.667 1.091.43.43.765.946.997 1.538.232.593.352 1.238.352 1.925 0 1.522-.49 2.785-1.452 3.808-.963 1.022-2.218 1.564-3.756 1.632v2.218h-1.297V30.86c-1.1-.137-1.986-.387-2.673-.739-.688-.352-1.28-.928-1.78-1.71-.497-.79-.79-1.753-.867-2.888l2.209-.412c.171 1.177.472 2.045.902 2.595.619.782 1.358 1.212 2.217 1.306v-6.978c-.902-.171-1.822-.524-2.767-1.048a4.08 4.08 0 0 1-1.616-1.624c-.378-.688-.567-1.47-.567-2.355l-.008-.017ZM38.156 22c0-4.46-1.804-8.5-4.735-11.421A16.108 16.108 0 0 0 22 5.844c-4.46 0-8.5 1.804-11.421 4.735A16.108 16.108 0 0 0 5.844 22c0 4.46 1.804 8.5 4.735 11.421A16.108 16.108 0 0 0 22 38.156c4.46 0 8.5-1.804 11.421-4.735A16.108 16.108 0 0 0 38.156 22Z" clip-rule="evenodd"/><path fill="#0B7572" fill-rule="evenodd" d="M21.863 19.903v-6.067c-.851.129-1.53.473-2.02 1.023-.49.55-.739 1.203-.739 1.968 0 .747.206 1.375.627 1.873.421.507 1.126.91 2.123 1.203h.009ZM26.1 25.532c0-.79-.198-1.435-.594-1.916-.395-.482-1.186-.92-2.363-1.298v6.677a3.24 3.24 0 0 0 2.114-1.108c.559-.636.834-1.418.834-2.355h.008Z" clip-rule="evenodd"/></svg>