<svg xmlns="http://www.w3.org/2000/svg" width="40" height="50" fill="none"><path fill="#0B7572" fill-rule="evenodd" d="M6.168 36.745h6.902c.454 0 .822.368.822.822v6.902a.821.821 0 0 1-.822.822H6.168a.821.821 0 0 1-.822-.822v-6.902c0-.454.367-.822.822-.822Zm27.445-9.638H20.96a.821.821 0 1 1 0-1.643h12.654a.821.821 0 1 1 0 1.643ZM14.404 10.383 7.947 16.84a.822.822 0 0 1-1.305-.155l-1.953-3.383a.824.824 0 0 1 .3-1.121.824.824 0 0 1 1.12.3l1.422 2.465 5.713-5.714a.823.823 0 0 1 1.16 0 .823.823 0 0 1 0 1.16v-.01ZM10.19 0H.822A.821.821 0 0 0 0 .822v47.853c0 .454.367.822.822.822h37.374a.821.821 0 0 0 .821-.822V.822A.821.821 0 0 0 38.195 0h-9.367v4.476a.821.821 0 0 1-.822.822H11.011a.821.821 0 0 1-.822-.822V0Zm9.948 41.018a.82.82 0 0 1 .822-.821h12.654a.821.821 0 1 1 0 1.643H20.96a.82.82 0 0 1-.822-.822Zm-5.733-17.381-6.457 6.457a.822.822 0 0 1-1.305-.155l-1.953-3.383a.824.824 0 0 1 .3-1.121.824.824 0 0 1 1.12.3L7.532 28.2l5.713-5.714a.823.823 0 0 1 1.16 0 .823.823 0 0 1 0 1.16v-.01Zm6.555-9.784a.82.82 0 1 1 0-1.643h12.654a.821.821 0 1 1 0 1.643H20.96Z" clip-rule="evenodd"/><path fill="#0B7572" fill-rule="evenodd" d="M28.006.03H11.011v4.446h16.995V.029Z" clip-rule="evenodd"/></svg>